<svg id="Layer_1" data-name="Layer 1" xmlns="http://www.w3.org/2000/svg" viewBox="0 0 566.34 302"><defs><style>.cls-1,.cls-10,.cls-11,.cls-17{fill:none;}.cls-1,.cls-17{stroke:blue;stroke-width:2px;}.cls-1{stroke-linecap:round;stroke-linejoin:bevel;}.cls-2{fill:#c2ffc2;}.cls-10,.cls-11,.cls-2,.cls-3,.cls-6{stroke:#000;}.cls-10,.cls-11,.cls-17,.cls-2,.cls-3,.cls-6{stroke-miterlimit:10;}.cls-10,.cls-2,.cls-3,.cls-6{stroke-width:1.5px;}.cls-3{fill:#ffb;}.cls-4,.cls-8,.cls-9{font-size:12px;}.cls-12,.cls-13,.cls-4,.cls-8,.cls-9{font-family:CambriaMath, Cambria Math;}.cls-5{letter-spacing:-0.02em;}.cls-6{fill:#dbdbff;}.cls-7,.cls-8,.cls-9{isolation:isolate;}.cls-9{letter-spacing:-0.01em;}.cls-12{font-size:6px;}.cls-13{font-size:8px;}.cls-14{letter-spacing:-0.01em;}.cls-15{letter-spacing:-0.02em;}.cls-16{letter-spacing:-0.01em;}</style></defs><polyline class="cls-1" points="185.66 70.44 290.34 1 290.34 301 185.66 80.44"/><polygon class="cls-2" points="270.66 70.7 270.66 41 210.66 41 210.66 70.7 210.66 71 270.66 71 270.66 70.7"/><polygon class="cls-2" points="545.89 149.92 545.89 120.22 485.89 120.22 485.89 149.92 485.89 150.22 545.89 150.22 545.89 149.92"/><polygon class="cls-3" points="185.66 148.41 185.66 1 85.66 1 85.66 148.41 85.66 149.88 185.66 149.88 185.66 148.41"/><text class="cls-4" transform="translate(102.79 78.35)">GPIO Mux IP</text><text class="cls-4" transform="translate(500.25 139.63)"><tspan class="cls-5">P</tspan><tspan x="6.59" y="0">ort 1</tspan></text><polygon class="cls-2" points="270.66 30.7 270.66 1 210.66 1 210.66 30.7 210.66 31 270.66 31 270.66 30.7"/><text class="cls-4" transform="translate(225.03 20.41)"><tspan class="cls-5">P</tspan><tspan x="6.59" y="0">ort 1</tspan></text><text class="cls-4" transform="translate(225.03 60.22)"><tspan class="cls-5">P</tspan><tspan x="6.59" y="0">ort 2</tspan></text><polygon class="cls-6" points="60.75 30.71 60.75 1 0.75 1 0.75 30.71 0.75 31 60.75 31 60.75 30.71"/><g class="cls-7"><text class="cls-8" transform="translate(9.98 19.68)">D</text><text class="cls-9" transform="translate(17.92 19.68)">e</text><text class="cls-8" transform="translate(23.66 19.68)">vice 1</text></g><line class="cls-10" x1="66.05" y1="11" x2="85.66" y2="11"/><polygon points="67.14 14.74 60.66 11 67.14 7.26 67.14 14.74"/><line class="cls-10" x1="60.66" y1="21" x2="80.28" y2="21"/><polygon points="79.19 24.74 85.66 21 79.19 17.26 79.19 24.74"/><line class="cls-11" x1="70.6" y1="14.63" x2="73.98" y2="7.37"/><line class="cls-11" x1="72.6" y1="24.63" x2="75.98" y2="17.37"/><line class="cls-10" x1="191.05" y1="10.91" x2="210.66" y2="10.91"/><polygon points="192.14 14.65 185.66 10.91 192.14 7.17 192.14 14.65"/><line class="cls-10" x1="185.66" y1="20.91" x2="205.28" y2="20.91"/><polygon points="204.19 24.65 210.66 20.91 204.19 17.17 204.19 24.65"/><line class="cls-11" x1="195.6" y1="14.53" x2="198.98" y2="7.28"/><line class="cls-11" x1="345.16" y1="43.28" x2="348.54" y2="36.03"/><line class="cls-11" x1="197.6" y1="24.53" x2="200.98" y2="17.28"/><polygon class="cls-6" points="60.75 70.72 60.75 41 0.75 41 0.75 70.72 0.75 71 60.75 71 60.75 70.72"/><g class="cls-7"><text class="cls-8" transform="translate(8.41 60.34)">D</text><text class="cls-9" transform="translate(16.35 60.34)">e</text><text class="cls-8" transform="translate(22.09 60.34)">vice 2</text></g><line class="cls-10" x1="66.05" y1="51" x2="85.66" y2="51"/><polygon points="67.14 54.74 60.66 51 67.14 47.26 67.14 54.74"/><line class="cls-10" x1="60.66" y1="61" x2="80.28" y2="61"/><polygon points="79.19 64.74 85.66 61 79.19 57.26 79.19 64.74"/><line class="cls-11" x1="70.6" y1="54.63" x2="73.98" y2="47.37"/><line class="cls-11" x1="72.6" y1="64.63" x2="75.98" y2="57.37"/><polygon class="cls-6" points="60.75 110.72 60.75 81 0.75 81 0.75 110.72 0.75 111 60.75 111 60.75 110.72"/><g class="cls-7"><text class="cls-8" transform="translate(9.98 99.68)">D</text><text class="cls-9" transform="translate(17.92 99.68)">e</text><text class="cls-8" transform="translate(23.66 99.68)">vice 3</text></g><line class="cls-10" x1="66.05" y1="91" x2="85.66" y2="91"/><polygon points="67.14 94.74 60.66 91 67.14 87.26 67.14 94.74"/><line class="cls-10" x1="60.66" y1="101" x2="80.28" y2="101"/><polygon points="79.19 104.74 85.66 101 79.19 97.26 79.19 104.74"/><line class="cls-11" x1="70.6" y1="94.63" x2="73.98" y2="87.37"/><line class="cls-11" x1="72.6" y1="104.63" x2="75.98" y2="97.37"/><polygon class="cls-6" points="60.75 150.72 60.75 121 0.75 121 0.75 150.72 0.75 151 60.75 151 60.75 150.72"/><g class="cls-7"><text class="cls-8" transform="translate(9.98 139.68)">D</text><text class="cls-9" transform="translate(17.92 139.68)">e</text><text class="cls-8" transform="translate(23.66 139.68)">vice 4</text></g><line class="cls-10" x1="66.05" y1="131" x2="85.66" y2="131"/><polygon points="67.14 134.74 60.66 131 67.14 127.26 67.14 134.74"/><line class="cls-10" x1="60.66" y1="141" x2="80.28" y2="141"/><polygon points="79.19 144.74 85.66 141 79.19 137.26 79.19 144.74"/><line class="cls-11" x1="70.6" y1="134.63" x2="73.98" y2="127.37"/><line class="cls-11" x1="72.6" y1="144.63" x2="75.98" y2="137.37"/><line class="cls-10" x1="191.05" y1="50.91" x2="210.66" y2="50.91"/><polygon points="192.14 54.65 185.66 50.91 192.14 47.17 192.14 54.65"/><line class="cls-10" x1="185.66" y1="60.91" x2="205.28" y2="60.91"/><polygon points="204.19 64.65 210.66 60.91 204.19 57.17 204.19 64.65"/><line class="cls-11" x1="195.6" y1="54.53" x2="198.98" y2="47.28"/><line class="cls-11" x1="197.6" y1="64.53" x2="200.98" y2="57.28"/><text class="cls-12" transform="translate(201.04 48.78)">2</text><text class="cls-12" transform="translate(192.62 66.78)">2</text><text class="cls-12" transform="translate(201.28 9.19)">2</text><text class="cls-12" transform="translate(346.85 45.41)">2</text><text class="cls-12" transform="translate(192.86 27.19)">2</text><text class="cls-12" transform="translate(76.28 9.19)">2</text><text class="cls-12" transform="translate(67.86 27.19)">2</text><text class="cls-12" transform="translate(76.28 49.28)">2</text><text class="cls-12" transform="translate(67.86 67.29)">2</text><text class="cls-12" transform="translate(75.2 89)">2</text><text class="cls-12" transform="translate(66.78 107)">2</text><text class="cls-12" transform="translate(75.16 129.25)">2</text><text class="cls-12" transform="translate(66.74 147.26)">2</text><line class="cls-10" x1="309.91" y1="39.66" x2="354.53" y2="39.66"/><polygon points="353.43 43.4 359.91 39.66 353.43 35.92 353.43 43.4"/><text class="cls-13" transform="translate(313.82 36.53)">D<tspan class="cls-14" x="5.29" y="0">e</tspan><tspan x="9.12" y="0">vice 1</tspan></text><line class="cls-11" x1="345.16" y1="63.28" x2="348.54" y2="56.03"/><text class="cls-12" transform="translate(346.85 65.41)">2</text><line class="cls-10" x1="309.91" y1="59.66" x2="354.53" y2="59.66"/><polygon points="353.43 63.4 359.91 59.66 353.43 55.92 353.43 63.4"/><text class="cls-13" transform="translate(313.82 56.53)">D<tspan class="cls-14" x="5.29" y="0">e</tspan><tspan x="9.12" y="0">vice 2</tspan></text><line class="cls-11" x1="345.16" y1="83.28" x2="348.54" y2="76.03"/><text class="cls-12" transform="translate(346.85 85.41)">2</text><line class="cls-10" x1="309.91" y1="79.66" x2="354.53" y2="79.66"/><polygon points="353.43 83.4 359.91 79.66 353.43 75.92 353.43 83.4"/><text class="cls-13" transform="translate(313.82 76.53)">D<tspan class="cls-14" x="5.29" y="0">e</tspan><tspan x="9.12" y="0">vice 3</tspan></text><line class="cls-11" x1="345.16" y1="103.28" x2="348.54" y2="96.03"/><text class="cls-12" transform="translate(346.85 105.41)">2</text><line class="cls-10" x1="309.91" y1="99.66" x2="354.53" y2="99.66"/><polygon points="353.43 103.4 359.91 99.66 353.43 95.92 353.43 103.4"/><text class="cls-13" transform="translate(313.82 96.53)">D<tspan class="cls-14" x="5.29" y="0">e</tspan><tspan x="9.12" y="0">vice 4</tspan></text><line class="cls-11" x1="352.16" y1="183.28" x2="355.54" y2="176.03"/><text class="cls-12" transform="translate(353.85 185.41)">2</text><line class="cls-10" x1="315.29" y1="179.66" x2="359.91" y2="179.66"/><polygon points="316.38 183.4 309.91 179.66 316.38 175.92 316.38 183.4"/><text class="cls-13" transform="translate(320.82 176.53)">D<tspan class="cls-14" x="5.29" y="0">e</tspan><tspan x="9.12" y="0">vice 1</tspan></text><line class="cls-11" x1="352.16" y1="203.28" x2="355.54" y2="196.03"/><text class="cls-12" transform="translate(353.85 205.41)">2</text><line class="cls-10" x1="315.29" y1="199.66" x2="359.91" y2="199.66"/><polygon points="316.38 203.4 309.91 199.66 316.38 195.92 316.38 203.4"/><text class="cls-13" transform="translate(320.82 196.53)">D<tspan class="cls-14" x="5.29" y="0">e</tspan><tspan x="9.12" y="0">vice 2</tspan></text><line class="cls-11" x1="352.16" y1="223.28" x2="355.54" y2="216.03"/><text class="cls-12" transform="translate(353.85 225.41)">2</text><line class="cls-10" x1="315.29" y1="219.66" x2="359.91" y2="219.66"/><polygon points="316.38 223.4 309.91 219.66 316.38 215.92 316.38 223.4"/><text class="cls-13" transform="translate(320.82 216.53)">D<tspan class="cls-14" x="5.29" y="0">e</tspan><tspan x="9.12" y="0">vice 3</tspan></text><line class="cls-11" x1="352.16" y1="243.28" x2="355.54" y2="236.03"/><text class="cls-12" transform="translate(353.85 245.41)">2</text><line class="cls-10" x1="315.29" y1="239.66" x2="359.91" y2="239.66"/><polygon points="316.38 243.4 309.91 239.66 316.38 235.92 316.38 243.4"/><text class="cls-13" transform="translate(320.82 236.53)">D<tspan class="cls-14" x="5.29" y="0">e</tspan><tspan x="9.12" y="0">vice 4</tspan></text><line class="cls-10" x1="359.91" y1="19.66" x2="359.91" y2="119.66"/><line class="cls-10" x1="359.91" y1="19.66" x2="385.89" y2="34.66"/><line class="cls-10" x1="359.91" y1="119.66" x2="385.89" y2="104.66"/><line class="cls-10" x1="385.89" y1="34.66" x2="385.89" y2="104.66"/><line class="cls-10" x1="359.91" y1="159.66" x2="359.91" y2="259.66"/><line class="cls-10" x1="359.91" y1="159.66" x2="385.89" y2="174.66"/><line class="cls-10" x1="359.91" y1="259.66" x2="385.89" y2="244.66"/><line class="cls-10" x1="385.89" y1="174.66" x2="385.89" y2="244.66"/><line class="cls-10" x1="372.9" y1="112.16" x2="372.9" y2="142.9"/><line class="cls-10" x1="372.9" y1="252.16" x2="372.9" y2="282.49"/><line class="cls-10" x1="385.89" y1="69.32" x2="435.89" y2="69.32"/><line class="cls-10" x1="391.27" y1="209.66" x2="435.89" y2="209.66"/><polygon points="392.37 213.4 385.89 209.66 392.37 205.92 392.37 213.4"/><line class="cls-10" x1="435.89" y1="130.1" x2="480.51" y2="130.1"/><polygon points="479.41 133.84 485.89 130.1 479.41 126.36 479.41 133.84"/><line class="cls-10" x1="435.89" y1="140.1" x2="485.89" y2="140.1"/><line class="cls-10" x1="435.89" y1="69.32" x2="435.89" y2="130.1"/><line class="cls-10" x1="435.89" y1="209.66" x2="435.89" y2="140.1"/><text class="cls-13" transform="translate(380.34 143.14) rotate(-90)">s<tspan class="cls-15" x="3.44" y="0">l</tspan><tspan x="5.45" y="0">v_</tspan><tspan class="cls-16" x="12.45" y="0">r</tspan><tspan x="15.64" y="0">eg0</tspan></text><text class="cls-13" transform="translate(380.34 282.49) rotate(-90)">s<tspan class="cls-15" x="3.44" y="0">l</tspan><tspan x="5.45" y="0">v_</tspan><tspan class="cls-16" x="12.45" y="0">r</tspan><tspan x="15.64" y="0">eg0</tspan></text><rect class="cls-17" x="290.34" y="1" width="275" height="300"/></svg>