<svg id="Layer_1" data-name="Layer 1" xmlns="http://www.w3.org/2000/svg" viewBox="0 0 633.32 345.51"><defs><style>.cls-1,.cls-12,.cls-14,.cls-5{fill:none;}.cls-1{stroke:blue;stroke-linejoin:round;stroke-width:2px;}.cls-2{fill:#dbdbff;}.cls-12,.cls-14,.cls-2,.cls-3,.cls-4,.cls-5{stroke:#000;stroke-miterlimit:10;}.cls-14,.cls-2,.cls-3,.cls-4,.cls-5{stroke-width:1.5px;}.cls-3{fill:#ffb;}.cls-4{fill:#c2ffc2;}.cls-24,.cls-6{font-size:12px;}.cls-13,.cls-16,.cls-24,.cls-6{font-family:CambriaMath, Cambria Math;}.cls-7{letter-spacing:-0.02em;}.cls-8{letter-spacing:-0.01em;}.cls-9{letter-spacing:-0.02em;}.cls-10{letter-spacing:0em;}.cls-11{letter-spacing:-0.01em;}.cls-13{font-size:6px;}.cls-14{stroke-dasharray:4 2 4 2 8 2;}.cls-15{letter-spacing:-0.01em;}.cls-16{font-size:10px;}.cls-17{letter-spacing:-0.01em;}.cls-18{letter-spacing:-0.08em;}.cls-19{letter-spacing:-0.06em;}.cls-20{letter-spacing:-0.01em;}.cls-21{letter-spacing:-0.02em;}.cls-22{letter-spacing:-0.01em;}.cls-23{fill:#fff;}.cls-24{fill:blue;}</style></defs><polyline class="cls-1" points="299.64 1.73 632.32 1.73 632.32 321.73 299.64 321.73 165.75 195.2 299.64 321.73 299.64 1.73 165.75 135.2"/><polygon class="cls-2" points="60.75 80.94 60.75 1.73 0.75 1.73 0.75 80.94 0.75 81.73 60.75 81.73 60.75 80.94"/><polygon class="cls-3" points="165.75 317.63 165.75 0.79 85.75 0.79 85.75 317.63 85.75 320.79 165.75 320.79 165.75 317.63"/><polygon class="cls-2" points="60.75 111.54 60.75 91.73 0.75 91.73 0.75 111.54 0.75 111.73 60.75 111.73 60.75 111.54"/><polygon class="cls-4" points="270.79 20.55 270.79 0.75 190.79 0.75 190.79 20.55 190.79 20.75 270.79 20.75 270.79 20.55"/><polygon class="cls-4" points="270.79 50.55 270.79 30.75 190.79 30.75 190.79 50.55 190.79 50.75 270.79 50.75 270.79 50.55"/><polygon class="cls-4" points="270.79 80.55 270.79 60.75 190.79 60.75 190.79 80.55 190.79 80.75 270.79 80.75 270.79 80.55"/><polygon class="cls-4" points="270.79 110.55 270.79 90.75 190.79 90.75 190.79 110.55 190.79 110.75 270.79 110.75 270.79 110.55"/><polygon class="cls-5" points="405.18 156.51 405.18 141.66 355.18 141.66 355.18 156.51 355.18 156.66 405.18 156.66 405.18 156.51"/><polygon class="cls-4" points="619.81 159.09 619.81 144.23 549.6 144.23 549.6 159.09 549.6 159.23 619.81 159.23 619.81 159.09"/><polygon class="cls-2" points="60.75 141.54 60.75 121.73 0.75 121.73 0.75 141.54 0.75 141.73 60.75 141.73 60.75 141.54"/><polygon class="cls-2" points="60.75 171.54 60.75 151.73 0.75 151.73 0.75 171.54 0.75 171.73 60.75 171.73 60.75 171.54"/><polygon class="cls-2" points="60.75 201.54 60.75 181.73 0.75 181.73 0.75 201.54 0.75 201.73 60.75 201.73 60.75 201.54"/><polygon class="cls-2" points="60.75 231.54 60.75 211.73 0.75 211.73 0.75 231.54 0.75 231.73 60.75 231.73 60.75 231.54"/><polygon class="cls-2" points="60.75 261.54 60.75 241.73 0.75 241.73 0.75 261.54 0.75 261.73 60.75 261.73 60.75 261.54"/><polygon class="cls-2" points="60.75 291.54 60.75 271.73 0.75 271.73 0.75 291.54 0.75 291.73 60.75 291.73 60.75 291.54"/><polygon class="cls-2" points="60.75 321.54 60.75 301.73 0.75 301.73 0.75 321.54 0.75 321.73 60.75 321.73 60.75 321.54"/><text class="cls-6" transform="translate(10.85 31.45)">I<tspan class="cls-7" x="3.89" y="0">nv</tspan><tspan x="16.17" y="0">er</tspan><tspan class="cls-8" x="26.98" y="0">t</tspan><tspan x="30.94" y="0">er</tspan><tspan class="cls-9" x="4.45" y="14.4">P</tspan><tspan class="cls-10" x="11.04" y="14.4">o</tspan><tspan class="cls-11" x="17.35" y="14.4">w</tspan><tspan x="26.49" y="14.4">er </tspan><tspan x="0.47" y="28.8">Stack IP</tspan></text><text class="cls-6" transform="translate(104.87 149.33)">I<tspan class="cls-7" x="3.89" y="0">nv</tspan><tspan x="16.17" y="0">er</tspan><tspan class="cls-8" x="26.98" y="0">t</tspan><tspan x="30.94" y="0">er </tspan><tspan x="5.02" y="14.4">Status </tspan><tspan x="3.1" y="28.8">Mux IP</tspan></text><line class="cls-5" x1="60.75" y1="11.73" x2="81.44" y2="11.73"/><polygon points="80.57 14.73 85.75 11.73 80.57 8.74 80.57 14.73"/><line class="cls-5" x1="85.75" y1="31.73" x2="65.06" y2="31.73"/><polygon points="65.93 28.74 60.75 31.73 65.93 34.73 65.93 28.74"/><line class="cls-5" x1="85.75" y1="51.73" x2="65.06" y2="51.73"/><polygon points="65.93 48.74 60.75 51.73 65.93 54.73 65.93 48.74"/><line class="cls-5" x1="85.75" y1="71.73" x2="65.06" y2="71.73"/><polygon points="65.93 68.74 60.75 71.73 65.93 74.73 65.93 68.74"/><line class="cls-5" x1="81.44" y1="101.73" x2="65.06" y2="101.73"/><polygon points="80.57 98.74 85.75 101.73 80.57 104.73 80.57 98.74"/><polygon points="65.93 98.74 60.75 101.73 65.93 104.73 65.93 98.74"/><line class="cls-5" x1="81.44" y1="131.73" x2="65.06" y2="131.73"/><polygon points="80.57 128.74 85.75 131.73 80.57 134.73 80.57 128.74"/><polygon points="65.93 128.74 60.75 131.73 65.93 134.73 65.93 128.74"/><line class="cls-5" x1="81.44" y1="161.73" x2="65.06" y2="161.73"/><polygon points="80.57 158.74 85.75 161.73 80.57 164.73 80.57 158.74"/><polygon points="65.93 158.74 60.75 161.73 65.93 164.73 65.93 158.74"/><line class="cls-5" x1="81.44" y1="191.73" x2="65.06" y2="191.73"/><polygon points="80.57 188.74 85.75 191.73 80.57 194.73 80.57 188.74"/><polygon points="65.93 188.74 60.75 191.73 65.93 194.73 65.93 188.74"/><line class="cls-5" x1="81.44" y1="221.73" x2="65.06" y2="221.73"/><polygon points="80.57 218.74 85.75 221.73 80.57 224.73 80.57 218.74"/><polygon points="65.93 218.74 60.75 221.73 65.93 224.73 65.93 218.74"/><line class="cls-5" x1="81.44" y1="251.73" x2="65.06" y2="251.73"/><polygon points="80.57 248.74 85.75 251.73 80.57 254.73 80.57 248.74"/><polygon points="65.93 248.74 60.75 251.73 65.93 254.73 65.93 248.74"/><line class="cls-5" x1="81.44" y1="281.73" x2="65.06" y2="281.73"/><polygon points="80.57 278.74 85.75 281.73 80.57 284.73 80.57 278.74"/><polygon points="65.93 278.74 60.75 281.73 65.93 284.73 65.93 278.74"/><line class="cls-5" x1="81.44" y1="311.73" x2="65.06" y2="311.73"/><polygon points="80.57 308.74 85.75 311.73 80.57 314.73 80.57 308.74"/><polygon points="65.93 308.74 60.75 311.73 65.93 314.73 65.93 308.74"/><line class="cls-12" x1="64.51" y1="15.2" x2="68.51" y2="8.27"/><line class="cls-12" x1="68.51" y1="105.2" x2="72.51" y2="98.27"/><line class="cls-12" x1="68.51" y1="135.2" x2="72.51" y2="128.27"/><line class="cls-12" x1="68.51" y1="165.2" x2="72.51" y2="158.27"/><line class="cls-12" x1="68.51" y1="195.2" x2="72.51" y2="188.27"/><line class="cls-12" x1="68.51" y1="225.2" x2="72.51" y2="218.27"/><line class="cls-12" x1="68.51" y1="255.2" x2="72.51" y2="248.27"/><line class="cls-12" x1="68.51" y1="285.2" x2="72.51" y2="278.27"/><line class="cls-12" x1="67.51" y1="315.2" x2="71.51" y2="308.27"/><line class="cls-12" x1="77.99" y1="35.2" x2="81.99" y2="28.27"/><line class="cls-12" x1="77.99" y1="55.2" x2="81.99" y2="48.27"/><line class="cls-12" x1="77.99" y1="75.2" x2="81.99" y2="68.27"/><text class="cls-13" transform="translate(72.89 9.58)">8</text><line class="cls-5" x1="315.22" y1="31.73" x2="363.93" y2="31.73"/><polygon points="363.06 34.73 368.24 31.73 363.06 28.74 363.06 34.73"/><line class="cls-5" x1="315.22" y1="51.73" x2="363.93" y2="51.73"/><polygon points="363.06 54.73 368.24 51.73 363.06 48.74 363.06 54.73"/><line class="cls-14" x1="343.24" y1="91.73" x2="363.93" y2="91.73"/><polygon points="363.06 94.73 368.24 91.73 363.06 88.74 363.06 94.73"/><line class="cls-5" x1="315.22" y1="71.73" x2="363.93" y2="71.73"/><polygon points="363.06 74.73 368.24 71.73 363.06 68.74 363.06 74.73"/><line class="cls-5" x1="315.22" y1="111.73" x2="363.93" y2="111.73"/><polygon points="363.06 114.73 368.24 111.73 363.06 108.74 363.06 114.73"/><text class="cls-13" transform="translate(317.25 49.15)">D<tspan class="cls-15" x="3.97" y="0">e</tspan><tspan x="6.84" y="0">vice 1 Status A</tspan></text><text class="cls-13" transform="translate(318.44 29.24)">In<tspan class="cls-8" x="5.29" y="0">t</tspan><tspan x="7.27" y="0">ernal Status A</tspan></text><text class="cls-16" transform="translate(554.11 154.66)">Status_A pin_i</text><text class="cls-13" transform="translate(436.64 148.82)"><tspan class="cls-17">S</tspan><tspan class="cls-18" x="2.9" y="0">T</tspan><tspan class="cls-19" x="5.99" y="0">A</tspan><tspan x="9.37" y="0">TUS_A_</tspan><tspan class="cls-20" x="27.98" y="0">C</tspan><tspan x="31.32" y="0">ONFIG</tspan></text><text x="-420.85" y="-1631.21"/><text class="cls-13" transform="translate(317.25 69.88)">D<tspan class="cls-15" x="3.97" y="0">e</tspan><tspan x="6.84" y="0">vice 2 Status A</tspan></text><text class="cls-13" transform="translate(317.25 109.79)">D<tspan class="cls-15" x="3.97" y="0">e</tspan><tspan x="6.84" y="0">vice 8 Status A</tspan></text><line class="cls-5" x1="368.24" y1="180.59" x2="315.22" y2="180.59"/><line class="cls-5" x1="368.24" y1="200.59" x2="319.52" y2="200.59"/><polygon points="320.4 197.6 315.22 200.59 320.4 203.59 320.4 197.6"/><line class="cls-14" x1="367.47" y1="240.59" x2="346.78" y2="240.59"/><polygon points="347.65 237.6 342.47 240.59 347.65 243.59 347.65 237.6"/><line class="cls-5" x1="368.24" y1="220.59" x2="319.52" y2="220.59"/><polygon points="320.4 217.6 315.22 220.59 320.4 223.59 320.4 217.6"/><line class="cls-5" x1="368.24" y1="260.59" x2="319.52" y2="260.59"/><polygon points="320.4 257.6 315.22 260.59 320.4 263.58 320.4 257.6"/><text class="cls-13" transform="translate(321.25 198.01)">D<tspan class="cls-15" x="3.97" y="0">e</tspan><tspan x="6.84" y="0">vice 1 Status A</tspan></text><text class="cls-13" transform="translate(324.46 178.1)">Unconnec<tspan class="cls-8" x="25.34" y="0">t</tspan><tspan x="27.31" y="0">ed</tspan></text><text x="-420.85" y="-1631.21"/><text class="cls-13" transform="translate(321.25 218.74)">D<tspan class="cls-15" x="3.97" y="0">e</tspan><tspan x="6.84" y="0">vice 2 Status A</tspan></text><text class="cls-13" transform="translate(321.91 258.65)">D<tspan class="cls-15" x="3.97" y="0">e</tspan><tspan x="6.84" y="0">vice8 Status A</tspan></text><text class="cls-13" transform="translate(72.89 30.13)">8</text><text class="cls-13" transform="translate(72.89 49.92)">8</text><text class="cls-13" transform="translate(72.89 70.09)">8</text><text class="cls-13" transform="translate(74.89 98.45)">4</text><text class="cls-13" transform="translate(74.89 128.09)">4</text><text class="cls-13" transform="translate(74.89 158.22)">4</text><text class="cls-13" transform="translate(74.89 188.86)">4</text><line class="cls-5" x1="186.44" y1="10.75" x2="170.06" y2="10.75"/><polygon points="185.57 7.76 190.75 10.75 185.57 13.74 185.57 7.76"/><polygon points="170.93 7.76 165.75 10.75 170.93 13.74 170.93 7.76"/><line class="cls-5" x1="186.44" y1="40.75" x2="170.06" y2="40.75"/><polygon points="185.57 37.76 190.75 40.75 185.57 43.74 185.57 37.76"/><polygon points="170.93 37.76 165.75 40.75 170.93 43.74 170.93 37.76"/><line class="cls-5" x1="186.44" y1="70.75" x2="170.06" y2="70.75"/><polygon points="185.57 67.76 190.75 70.75 185.57 73.74 185.57 67.76"/><polygon points="170.93 67.76 165.75 70.75 170.93 73.74 170.93 67.76"/><line class="cls-5" x1="186.44" y1="100.75" x2="170.06" y2="100.75"/><polygon points="185.57 97.76 190.75 100.75 185.57 103.74 185.57 97.76"/><polygon points="170.93 97.76 165.75 100.75 170.93 103.74 170.93 97.76"/><line class="cls-12" x1="173.51" y1="14.21" x2="177.51" y2="7.29"/><line class="cls-12" x1="173.51" y1="44.21" x2="177.51" y2="37.29"/><line class="cls-12" x1="173.51" y1="74.21" x2="177.51" y2="67.29"/><line class="cls-12" x1="173.51" y1="104.21" x2="177.51" y2="97.29"/><text class="cls-13" transform="translate(179.89 7.47)">8</text><text class="cls-13" transform="translate(179.89 37.11)">8</text><text class="cls-13" transform="translate(179.89 67.23)">8</text><text class="cls-13" transform="translate(179.89 97.87)">8</text><text class="cls-13" transform="translate(74.89 218.98)">4</text><text class="cls-13" transform="translate(74.89 249.35)">4</text><text class="cls-13" transform="translate(74.89 279.49)">4</text><text class="cls-6" transform="translate(9.98 105.41)">D<tspan class="cls-15" x="7.94" y="0">e</tspan><tspan x="13.68" y="0">vice 1</tspan></text><text class="cls-6" transform="translate(198.84 14.82)">Status A pins</text><text class="cls-6" transform="translate(198.91 44.69)">Status B pins</text><text class="cls-6" transform="translate(197.99 75.62)">Status C pins</text><text class="cls-6" transform="translate(197.39 104.85)">Status D pins</text><text class="cls-6" transform="translate(9.98 136.15)">D<tspan class="cls-15" x="7.94" y="0">e</tspan><tspan x="13.68" y="0">vice 2</tspan></text><text class="cls-6" transform="translate(9.98 166.15)">D<tspan class="cls-15" x="7.94" y="0">e</tspan><tspan x="13.68" y="0">vice 3</tspan></text><text class="cls-6" transform="translate(9.01 196.15)">D<tspan class="cls-15" x="7.94" y="0">e</tspan><tspan x="13.68" y="0">vice 4</tspan></text><text class="cls-6" transform="translate(9.98 225.63)">D<tspan class="cls-15" x="7.94" y="0">e</tspan><tspan x="13.68" y="0">vice 5</tspan></text><text class="cls-6" transform="translate(9.01 255.13)">D<tspan class="cls-15" x="7.94" y="0">e</tspan><tspan x="13.68" y="0">vice 6</tspan></text><text class="cls-6" transform="translate(9.01 285.33)">D<tspan class="cls-15" x="7.94" y="0">e</tspan><tspan x="13.68" y="0">vice 7</tspan></text><text class="cls-6" transform="translate(9.01 315.94)">D<tspan class="cls-15" x="7.94" y="0">e</tspan><tspan x="13.68" y="0">vice 8</tspan></text><polygon class="cls-5" points="479.45 131.73 479.45 101.73 505.43 116.73 479.45 131.73"/><polygon class="cls-5" points="505.43 201.73 505.43 171.73 479.45 186.73 505.43 201.73"/><polygon class="cls-5" points="368.24 121.73 368.24 21.73 389.45 42.95 389.45 100.52 368.24 121.73"/><polygon class="cls-5" points="368.24 271.73 368.24 171.73 389.45 192.95 389.45 250.52 368.24 271.73"/><line class="cls-5" x1="380.18" y1="109.79" x2="380.18" y2="140.95"/><polygon class="cls-5" points="405.18 306.51 405.18 291.66 355.18 291.66 355.18 306.51 355.18 306.66 405.18 306.66 405.18 306.51"/><text class="cls-16" transform="translate(360.92 151.73)">s<tspan class="cls-21" x="4.3" y="0">l</tspan><tspan x="6.81" y="0">v_</tspan><tspan class="cls-22" x="15.56" y="0">r</tspan><tspan x="19.55" y="0">eg_i</tspan></text><text class="cls-16" transform="translate(362.26 301.86)">s<tspan class="cls-21" x="4.3" y="0">l</tspan><tspan x="6.81" y="0">v_</tspan><tspan class="cls-22" x="15.56" y="0">r</tspan><tspan x="19.55" y="0">eg_i</tspan></text><line class="cls-5" x1="380.18" y1="259.79" x2="380.18" y2="290.95"/><line class="cls-5" x1="492.44" y1="124.23" x2="492.44" y2="176.2"/><circle class="cls-23" cx="492.44" cy="176.04" r="2.82"/><path d="M910.09,1807.25a3.2,3.2,0,1,1,3.2,3.19,3.21,3.21,0,0,1-3.2-3.19Zm5.64,0a2.45,2.45,0,1,0-2.44,2.44,2.45,2.45,0,0,0,2.44-2.44Z" transform="translate(-420.85 -1631.21)"/><line class="cls-5" x1="432.66" y1="151.73" x2="492.44" y2="151.73"/><polyline class="cls-5" points="505.43 116.73 525.69 116.73 525.69 116.79 525.69 186.79 525.69 186.73 506.28 186.73"/><polyline class="cls-5" points="389.45 71.73 439.45 71.73 439.45 116.73 474.07 116.73"/><polygon points="472.98 120.47 479.45 116.73 472.98 112.99 472.98 120.47"/><polyline class="cls-5" points="393.76 221.73 439.45 221.73 439.45 186.73 479.45 186.73"/><polygon points="394.63 224.73 389.45 221.73 394.63 218.74 394.63 224.73"/><line class="cls-5" x1="525.69" y1="151.79" x2="549.6" y2="151.79"/><text class="cls-24" transform="translate(504.67 18.13)">1x co<tspan class="cls-22" x="26.75" y="0">p</tspan><tspan x="33.25" y="0">y per status pin</tspan></text></svg>